<mxfile host="app.diagrams.net" modified="2023-07-29T05:36:14.789Z" agent="Mozilla/5.0 (Windows NT 10.0; Win64; x64) AppleWebKit/537.36 (KHTML, like Gecko) Chrome/115.0.0.0 Safari/537.36" etag="KQO4Y8zhWwKBck-k2U77" version="21.6.5" type="github">
  <diagram name="Page-1" id="Q3S8qEkMGTNUwsjY90w3">
    <mxGraphModel dx="1120" dy="446" grid="1" gridSize="10" guides="1" tooltips="1" connect="1" arrows="1" fold="1" page="1" pageScale="1" pageWidth="850" pageHeight="1100" math="0" shadow="0">
      <root>
        <mxCell id="0" />
        <mxCell id="1" parent="0" />
        <mxCell id="AKcUftun1-LZaaW81JXQ-3" value="" style="rounded=0;whiteSpace=wrap;html=1;fontSize=16;" parent="1" vertex="1">
          <mxGeometry x="632" y="327" width="150" height="175" as="geometry" />
        </mxCell>
        <mxCell id="AKcUftun1-LZaaW81JXQ-4" value="" style="rounded=0;whiteSpace=wrap;html=1;fontSize=16;" parent="1" vertex="1">
          <mxGeometry x="130" y="324" width="150" height="100" as="geometry" />
        </mxCell>
        <mxCell id="AKcUftun1-LZaaW81JXQ-5" value="" style="verticalLabelPosition=bottom;verticalAlign=top;html=1;shape=mxgraph.basic.layered_rect;dx=10;outlineConnect=0;whiteSpace=wrap;fontSize=16;fillColor=#fff2cc;strokeColor=#d6b656;gradientColor=#ffd966;" parent="1" vertex="1">
          <mxGeometry x="155" y="350" width="100" height="60" as="geometry" />
        </mxCell>
        <mxCell id="AKcUftun1-LZaaW81JXQ-6" value="Offline Records" style="text;html=1;strokeColor=none;fillColor=none;align=center;verticalAlign=middle;whiteSpace=wrap;rounded=0;fontSize=12;" parent="1" vertex="1">
          <mxGeometry x="170" y="360" width="60" height="30" as="geometry" />
        </mxCell>
        <mxCell id="AKcUftun1-LZaaW81JXQ-7" value="&lt;b style=&quot;font-size: 13px;&quot;&gt;ODK Central&lt;/b&gt;" style="text;html=1;strokeColor=none;fillColor=none;align=center;verticalAlign=middle;whiteSpace=wrap;rounded=0;fontSize=13;" parent="1" vertex="1">
          <mxGeometry x="161.5" y="320" width="87" height="30" as="geometry" />
        </mxCell>
        <mxCell id="QgUwrIjUVCHD0zXQT6MX-22" style="edgeStyle=orthogonalEdgeStyle;rounded=0;orthogonalLoop=1;jettySize=auto;html=1;exitX=0.25;exitY=1;exitDx=0;exitDy=0;entryX=0.25;entryY=0;entryDx=0;entryDy=0;" parent="1" source="AKcUftun1-LZaaW81JXQ-8" target="AKcUftun1-LZaaW81JXQ-28" edge="1">
          <mxGeometry relative="1" as="geometry" />
        </mxCell>
        <mxCell id="AKcUftun1-LZaaW81JXQ-8" value="" style="rounded=0;whiteSpace=wrap;html=1;fontSize=16;strokeColor=#000000;" parent="1" vertex="1">
          <mxGeometry x="375" y="499.5" width="170" height="158" as="geometry" />
        </mxCell>
        <mxCell id="QgUwrIjUVCHD0zXQT6MX-23" style="edgeStyle=orthogonalEdgeStyle;rounded=0;orthogonalLoop=1;jettySize=auto;html=1;exitX=0.75;exitY=0;exitDx=0;exitDy=0;entryX=0.718;entryY=1;entryDx=0;entryDy=0;entryPerimeter=0;" parent="1" source="AKcUftun1-LZaaW81JXQ-9" target="QgUwrIjUVCHD0zXQT6MX-3" edge="1">
          <mxGeometry relative="1" as="geometry" />
        </mxCell>
        <mxCell id="AKcUftun1-LZaaW81JXQ-9" value="&lt;b style=&quot;font-size: 13px;&quot;&gt;MOSIP Token Seeder&lt;/b&gt;" style="text;html=1;strokeColor=none;fillColor=none;align=center;verticalAlign=middle;whiteSpace=wrap;rounded=0;fontSize=13;" parent="1" vertex="1">
          <mxGeometry x="385" y="499" width="150" height="30" as="geometry" />
        </mxCell>
        <mxCell id="AKcUftun1-LZaaW81JXQ-10" value="&lt;b style=&quot;font-size: 13px;&quot;&gt;OpenG2P Registry&lt;/b&gt;" style="text;html=1;strokeColor=none;fillColor=none;align=center;verticalAlign=middle;whiteSpace=wrap;rounded=0;fontSize=13;" parent="1" vertex="1">
          <mxGeometry x="640" y="327" width="130" height="30" as="geometry" />
        </mxCell>
        <mxCell id="QgUwrIjUVCHD0zXQT6MX-37" style="edgeStyle=orthogonalEdgeStyle;rounded=0;orthogonalLoop=1;jettySize=auto;html=1;exitX=0.25;exitY=1;exitDx=0;exitDy=0;entryX=0.5;entryY=0;entryDx=0;entryDy=0;" parent="1" source="AKcUftun1-LZaaW81JXQ-13" target="AKcUftun1-LZaaW81JXQ-14" edge="1">
          <mxGeometry relative="1" as="geometry" />
        </mxCell>
        <mxCell id="AKcUftun1-LZaaW81JXQ-13" value="REST API" style="rounded=0;whiteSpace=wrap;html=1;fontSize=12;fillColor=#e1d5e7;strokeColor=#9673a6;" parent="1" vertex="1">
          <mxGeometry x="385" y="530" width="150" height="20" as="geometry" />
        </mxCell>
        <mxCell id="QgUwrIjUVCHD0zXQT6MX-40" style="edgeStyle=orthogonalEdgeStyle;rounded=0;orthogonalLoop=1;jettySize=auto;html=1;exitX=0.5;exitY=1;exitDx=0;exitDy=0;entryX=0.25;entryY=0;entryDx=0;entryDy=0;" parent="1" source="AKcUftun1-LZaaW81JXQ-14" target="AKcUftun1-LZaaW81JXQ-19" edge="1">
          <mxGeometry relative="1" as="geometry" />
        </mxCell>
        <mxCell id="AKcUftun1-LZaaW81JXQ-14" value="Input Formatter" style="rounded=0;whiteSpace=wrap;html=1;fontSize=12;fillColor=#e1d5e7;strokeColor=#9673a6;" parent="1" vertex="1">
          <mxGeometry x="390" y="570" width="60" height="30" as="geometry" />
        </mxCell>
        <mxCell id="QgUwrIjUVCHD0zXQT6MX-39" style="edgeStyle=orthogonalEdgeStyle;rounded=0;orthogonalLoop=1;jettySize=auto;html=1;exitX=0.5;exitY=0;exitDx=0;exitDy=0;entryX=0.741;entryY=0.32;entryDx=0;entryDy=0;entryPerimeter=0;" parent="1" source="AKcUftun1-LZaaW81JXQ-16" target="AKcUftun1-LZaaW81JXQ-8" edge="1">
          <mxGeometry relative="1" as="geometry" />
        </mxCell>
        <mxCell id="AKcUftun1-LZaaW81JXQ-16" value="Output Formatter" style="rounded=0;whiteSpace=wrap;html=1;fontSize=12;fillColor=#e1d5e7;strokeColor=#9673a6;" parent="1" vertex="1">
          <mxGeometry x="471" y="570" width="60" height="30" as="geometry" />
        </mxCell>
        <mxCell id="QgUwrIjUVCHD0zXQT6MX-41" style="edgeStyle=orthogonalEdgeStyle;rounded=0;orthogonalLoop=1;jettySize=auto;html=1;exitX=0.75;exitY=0;exitDx=0;exitDy=0;entryX=0.5;entryY=1;entryDx=0;entryDy=0;" parent="1" source="AKcUftun1-LZaaW81JXQ-19" target="AKcUftun1-LZaaW81JXQ-16" edge="1">
          <mxGeometry relative="1" as="geometry" />
        </mxCell>
        <mxCell id="AKcUftun1-LZaaW81JXQ-19" value="Authentication Connector" style="rounded=0;whiteSpace=wrap;html=1;fontSize=12;fillColor=#e1d5e7;strokeColor=#9673a6;" parent="1" vertex="1">
          <mxGeometry x="385" y="620" width="150" height="30" as="geometry" />
        </mxCell>
        <mxCell id="AKcUftun1-LZaaW81JXQ-20" style="edgeStyle=none;curved=1;rounded=0;orthogonalLoop=1;jettySize=auto;html=1;exitX=0.75;exitY=0;exitDx=0;exitDy=0;fontSize=12;startSize=8;endSize=8;" parent="1" edge="1">
          <mxGeometry relative="1" as="geometry">
            <mxPoint x="497.5" y="710" as="sourcePoint" />
            <mxPoint x="497.5" y="710" as="targetPoint" />
          </mxGeometry>
        </mxCell>
        <mxCell id="AKcUftun1-LZaaW81JXQ-22" value="Encrypted &amp;amp; Signed KYC Data" style="text;html=1;strokeColor=none;fillColor=none;align=center;verticalAlign=middle;whiteSpace=wrap;rounded=0;fontSize=12;" parent="1" vertex="1">
          <mxGeometry x="300" y="680" width="119" height="40" as="geometry" />
        </mxCell>
        <mxCell id="AKcUftun1-LZaaW81JXQ-23" value="Authentication Tokens&amp;nbsp;" style="text;html=1;strokeColor=none;fillColor=none;align=center;verticalAlign=middle;whiteSpace=wrap;rounded=0;fontSize=12;" parent="1" vertex="1">
          <mxGeometry x="502" y="680" width="90" height="40" as="geometry" />
        </mxCell>
        <mxCell id="AKcUftun1-LZaaW81JXQ-25" value="" style="verticalLabelPosition=bottom;verticalAlign=top;html=1;shape=mxgraph.basic.layered_rect;dx=10;outlineConnect=0;whiteSpace=wrap;fontSize=16;fillColor=#d5e8d4;gradientColor=#97d077;strokeColor=#82b366;" parent="1" vertex="1">
          <mxGeometry x="659" y="362" width="100" height="60" as="geometry" />
        </mxCell>
        <mxCell id="AKcUftun1-LZaaW81JXQ-26" value="Authenticated Records + Auth Tokens" style="text;html=1;strokeColor=none;fillColor=none;align=center;verticalAlign=middle;whiteSpace=wrap;rounded=0;fontSize=12;" parent="1" vertex="1">
          <mxGeometry x="682" y="368.5" width="50" height="35" as="geometry" />
        </mxCell>
        <mxCell id="QgUwrIjUVCHD0zXQT6MX-24" style="edgeStyle=orthogonalEdgeStyle;rounded=0;orthogonalLoop=1;jettySize=auto;html=1;exitX=0.75;exitY=0;exitDx=0;exitDy=0;entryX=0.75;entryY=1;entryDx=0;entryDy=0;" parent="1" source="AKcUftun1-LZaaW81JXQ-28" target="AKcUftun1-LZaaW81JXQ-8" edge="1">
          <mxGeometry relative="1" as="geometry" />
        </mxCell>
        <mxCell id="AKcUftun1-LZaaW81JXQ-28" value="MOSIP ID Authentication" style="rounded=0;whiteSpace=wrap;html=1;fontSize=13;fontStyle=1;fillColor=#dae8fc;strokeColor=#000000;gradientColor=none;" parent="1" vertex="1">
          <mxGeometry x="375" y="732.5" width="170" height="30" as="geometry" />
        </mxCell>
        <mxCell id="QgUwrIjUVCHD0zXQT6MX-20" style="edgeStyle=orthogonalEdgeStyle;rounded=0;orthogonalLoop=1;jettySize=auto;html=1;exitX=0.25;exitY=1;exitDx=0;exitDy=0;entryX=0.25;entryY=0;entryDx=0;entryDy=0;" parent="1" source="QgUwrIjUVCHD0zXQT6MX-3" target="AKcUftun1-LZaaW81JXQ-8" edge="1">
          <mxGeometry relative="1" as="geometry" />
        </mxCell>
        <mxCell id="QgUwrIjUVCHD0zXQT6MX-3" value="" style="rounded=0;whiteSpace=wrap;html=1;fontSize=16;" parent="1" vertex="1">
          <mxGeometry x="375" y="330" width="170" height="108" as="geometry" />
        </mxCell>
        <mxCell id="QgUwrIjUVCHD0zXQT6MX-14" style="edgeStyle=orthogonalEdgeStyle;rounded=0;orthogonalLoop=1;jettySize=auto;html=1;exitX=0.5;exitY=1;exitDx=0;exitDy=0;" parent="1" source="AKcUftun1-LZaaW81JXQ-16" target="AKcUftun1-LZaaW81JXQ-16" edge="1">
          <mxGeometry relative="1" as="geometry" />
        </mxCell>
        <mxCell id="QgUwrIjUVCHD0zXQT6MX-25" value="&lt;font style=&quot;font-size: 13px;&quot;&gt;&lt;b&gt;MTS Connectors&lt;/b&gt;&lt;/font&gt;" style="text;html=1;strokeColor=none;fillColor=none;align=center;verticalAlign=middle;whiteSpace=wrap;rounded=0;" parent="1" vertex="1">
          <mxGeometry x="390" y="328" width="140" height="31" as="geometry" />
        </mxCell>
        <mxCell id="QgUwrIjUVCHD0zXQT6MX-30" style="edgeStyle=orthogonalEdgeStyle;rounded=0;orthogonalLoop=1;jettySize=auto;html=1;exitX=1;exitY=0.5;exitDx=0;exitDy=0;entryX=0;entryY=0;entryDx=0;entryDy=12.5;entryPerimeter=0;" parent="1" source="QgUwrIjUVCHD0zXQT6MX-26" target="AKcUftun1-LZaaW81JXQ-25" edge="1">
          <mxGeometry relative="1" as="geometry" />
        </mxCell>
        <mxCell id="QgUwrIjUVCHD0zXQT6MX-26" value="ODK MTS Connector" style="rounded=0;whiteSpace=wrap;html=1;fillColor=#f5f5f5;fontColor=#333333;strokeColor=#666666;" parent="1" vertex="1">
          <mxGeometry x="390" y="359" width="140" height="30" as="geometry" />
        </mxCell>
        <mxCell id="TbYwla4e9xjChCc9Qg9--9" style="edgeStyle=orthogonalEdgeStyle;rounded=0;orthogonalLoop=1;jettySize=auto;html=1;exitX=1;exitY=0.25;exitDx=0;exitDy=0;entryX=0;entryY=0;entryDx=0;entryDy=25;entryPerimeter=0;" edge="1" parent="1" source="QgUwrIjUVCHD0zXQT6MX-27" target="AKcUftun1-LZaaW81JXQ-25">
          <mxGeometry relative="1" as="geometry" />
        </mxCell>
        <mxCell id="QgUwrIjUVCHD0zXQT6MX-27" value="Registry MTS Connector" style="rounded=0;whiteSpace=wrap;html=1;fillColor=#f5f5f5;fontColor=#333333;strokeColor=#666666;" parent="1" vertex="1">
          <mxGeometry x="390" y="399" width="140" height="30" as="geometry" />
        </mxCell>
        <mxCell id="QgUwrIjUVCHD0zXQT6MX-29" style="edgeStyle=orthogonalEdgeStyle;rounded=0;orthogonalLoop=1;jettySize=auto;html=1;exitX=1;exitY=0.5;exitDx=0;exitDy=0;entryX=0;entryY=0.5;entryDx=0;entryDy=0;" parent="1" source="AKcUftun1-LZaaW81JXQ-4" target="QgUwrIjUVCHD0zXQT6MX-26" edge="1">
          <mxGeometry relative="1" as="geometry" />
        </mxCell>
        <mxCell id="QgUwrIjUVCHD0zXQT6MX-42" value="ODK Form" style="text;html=1;strokeColor=none;fillColor=none;align=center;verticalAlign=middle;whiteSpace=wrap;rounded=0;" parent="1" vertex="1">
          <mxGeometry x="290" y="345.5" width="60" height="30" as="geometry" />
        </mxCell>
        <mxCell id="QgUwrIjUVCHD0zXQT6MX-44" value="JSON Format" style="text;html=1;strokeColor=none;fillColor=none;align=center;verticalAlign=middle;whiteSpace=wrap;rounded=0;" parent="1" vertex="1">
          <mxGeometry x="535" y="345.5" width="103" height="30" as="geometry" />
        </mxCell>
        <mxCell id="QgUwrIjUVCHD0zXQT6MX-45" value="API Call" style="text;html=1;strokeColor=none;fillColor=none;align=center;verticalAlign=middle;whiteSpace=wrap;rounded=0;fontSize=12;" parent="1" vertex="1">
          <mxGeometry x="365" y="457" width="54" height="20" as="geometry" />
        </mxCell>
        <mxCell id="QgUwrIjUVCHD0zXQT6MX-47" value="Authentication Tokens" style="text;html=1;strokeColor=none;fillColor=none;align=center;verticalAlign=middle;whiteSpace=wrap;rounded=0;fontSize=12;" parent="1" vertex="1">
          <mxGeometry x="502" y="450" width="78" height="40" as="geometry" />
        </mxCell>
        <mxCell id="TbYwla4e9xjChCc9Qg9--8" style="edgeStyle=orthogonalEdgeStyle;rounded=0;orthogonalLoop=1;jettySize=auto;html=1;exitX=0;exitY=0;exitDx=0;exitDy=25;exitPerimeter=0;entryX=1;entryY=0.75;entryDx=0;entryDy=0;" edge="1" parent="1" source="TbYwla4e9xjChCc9Qg9--4" target="QgUwrIjUVCHD0zXQT6MX-27">
          <mxGeometry relative="1" as="geometry" />
        </mxCell>
        <mxCell id="TbYwla4e9xjChCc9Qg9--4" value="" style="verticalLabelPosition=bottom;verticalAlign=top;html=1;shape=mxgraph.basic.layered_rect;dx=10;outlineConnect=0;whiteSpace=wrap;fontSize=16;fillColor=#f8cecc;strokeColor=#b85450;" vertex="1" parent="1">
          <mxGeometry x="659" y="433" width="100" height="60" as="geometry" />
        </mxCell>
        <mxCell id="TbYwla4e9xjChCc9Qg9--6" value="Unauthenticated Records" style="text;html=1;strokeColor=none;fillColor=none;align=center;verticalAlign=middle;whiteSpace=wrap;rounded=0;fontSize=12;" vertex="1" parent="1">
          <mxGeometry x="675" y="448" width="60" height="35" as="geometry" />
        </mxCell>
      </root>
    </mxGraphModel>
  </diagram>
</mxfile>
